<svg xmlns="http://www.w3.org/2000/svg" version="1.1" xmlns:xlink="http://www.w3.org/1999/xlink" xmlns:svgjs="http://svgjs.dev/svgjs" viewBox="0 0 800 800"><defs><linearGradient x1="50%" y1="0%" x2="50%" y2="100%" id="ffflurry-grad" gradientTransform="rotate(270)"><stop stop-color="hsl(238, 82%, 13%)" stop-opacity="1" offset="0%"></stop><stop stop-color="hsl(1.4, 100%, 67%)" stop-opacity="1" offset="45%"></stop><stop stop-color="hsl(167, 52%, 78%)" stop-opacity="1" offset="100%"></stop></linearGradient></defs><rect width="100%" height="100%" fill="hsl(238, 82%, 13%)"></rect><g fill="url(#ffflurry-grad)"><rect width="414" height="3" x="-5" y="329.5" rx="1.5" transform="rotate(45, 202, 331)" opacity="0.85"></rect><rect width="264" height="3" x="129" y="403.5" rx="1.5" transform="rotate(45, 261, 405)" opacity="0.70"></rect><rect width="266" height="3" x="313" y="388.5" rx="1.5" transform="rotate(45, 446, 390)" opacity="0.34"></rect><rect width="286" height="3" x="405" y="126.5" rx="1.5" transform="rotate(45, 548, 128)" opacity="0.95"></rect><rect width="375" height="3" x="333.5" y="676.5" rx="1.5" transform="rotate(45, 521, 678)" opacity="0.32"></rect><rect width="283" height="3" x="487.5" y="776.5" rx="1.5" transform="rotate(45, 629, 778)" opacity="0.97"></rect><rect width="557" height="3" x="-192.5" y="108.5" rx="1.5" transform="rotate(45, 86, 110)" opacity="0.58"></rect><rect width="191" height="3" x="519.5" y="558.5" rx="1.5" transform="rotate(45, 615, 560)" opacity="0.84"></rect><rect width="139" height="3" x="174.5" y="585.5" rx="1.5" transform="rotate(45, 244, 587)" opacity="0.64"></rect><rect width="322" height="3" x="605" y="218.5" rx="1.5" transform="rotate(45, 766, 220)" opacity="0.11"></rect><rect width="599" height="3" x="43.5" y="605.5" rx="1.5" transform="rotate(45, 343, 607)" opacity="0.13"></rect><rect width="449" height="3" x="213.5" y="665.5" rx="1.5" transform="rotate(45, 438, 667)" opacity="0.32"></rect><rect width="141" height="3" x="252.5" y="284.5" rx="1.5" transform="rotate(45, 323, 286)" opacity="0.53"></rect><rect width="44" height="3" x="291" y="192.5" rx="1.5" transform="rotate(45, 313, 194)" opacity="0.76"></rect><rect width="34" height="3" x="415" y="219.5" rx="1.5" transform="rotate(45, 432, 221)" opacity="0.33"></rect><rect width="651" height="3" x="-167.5" y="691.5" rx="1.5" transform="rotate(45, 158, 693)" opacity="0.87"></rect><rect width="252" height="3" x="415" y="43.5" rx="1.5" transform="rotate(45, 541, 45)" opacity="0.51"></rect><rect width="155" height="3" x="588.5" y="186.5" rx="1.5" transform="rotate(45, 666, 188)" opacity="0.15"></rect><rect width="56" height="3" x="5" y="151.5" rx="1.5" transform="rotate(45, 33, 153)" opacity="0.30"></rect><rect width="469" height="3" x="396.5" y="106.5" rx="1.5" transform="rotate(45, 631, 108)" opacity="0.49"></rect><rect width="94" height="3" x="661" y="274.5" rx="1.5" transform="rotate(45, 708, 276)" opacity="0.14"></rect><rect width="119" height="3" x="437.5" y="599.5" rx="1.5" transform="rotate(45, 497, 601)" opacity="0.28"></rect><rect width="39" height="3" x="531.5" y="571.5" rx="1.5" transform="rotate(45, 551, 573)" opacity="0.74"></rect><rect width="586" height="3" x="185" y="298.5" rx="1.5" transform="rotate(45, 478, 300)" opacity="0.90"></rect><rect width="121" height="3" x="618.5" y="716.5" rx="1.5" transform="rotate(45, 679, 718)" opacity="0.79"></rect><rect width="129" height="3" x="343.5" y="739.5" rx="1.5" transform="rotate(45, 408, 741)" opacity="0.60"></rect><rect width="50" height="3" x="4" y="489.5" rx="1.5" transform="rotate(45, 29, 491)" opacity="0.87"></rect><rect width="212" height="3" x="370" y="177.5" rx="1.5" transform="rotate(45, 476, 179)" opacity="0.83"></rect><rect width="569" height="3" x="220.5" y="759.5" rx="1.5" transform="rotate(45, 505, 761)" opacity="0.61"></rect><rect width="285" height="3" x="95.5" y="723.5" rx="1.5" transform="rotate(45, 238, 725)" opacity="0.34"></rect><rect width="220" height="3" x="476" y="749.5" rx="1.5" transform="rotate(45, 586, 751)" opacity="0.39"></rect><rect width="251" height="3" x="308.5" y="101.5" rx="1.5" transform="rotate(45, 434, 103)" opacity="0.75"></rect><rect width="236" height="3" x="-71" y="698.5" rx="1.5" transform="rotate(45, 47, 700)" opacity="0.42"></rect><rect width="63" height="3" x="78.5" y="424.5" rx="1.5" transform="rotate(45, 110, 426)" opacity="0.11"></rect><rect width="214" height="3" x="416" y="211.5" rx="1.5" transform="rotate(45, 523, 213)" opacity="0.16"></rect><rect width="62" height="3" x="582" y="193.5" rx="1.5" transform="rotate(45, 613, 195)" opacity="0.28"></rect><rect width="403" height="3" x="-15.5" y="512.5" rx="1.5" transform="rotate(45, 186, 514)" opacity="0.32"></rect><rect width="110" height="3" x="83" y="35.5" rx="1.5" transform="rotate(45, 138, 37)" opacity="0.65"></rect><rect width="206" height="3" x="541" y="358.5" rx="1.5" transform="rotate(45, 644, 360)" opacity="0.37"></rect><rect width="116" height="3" x="633" y="775.5" rx="1.5" transform="rotate(45, 691, 777)" opacity="0.64"></rect><rect width="412" height="3" x="-37" y="138.5" rx="1.5" transform="rotate(45, 169, 140)" opacity="0.38"></rect><rect width="122" height="3" x="-30" y="767.5" rx="1.5" transform="rotate(45, 31, 769)" opacity="0.92"></rect><rect width="189" height="3" x="653.5" y="106.5" rx="1.5" transform="rotate(45, 748, 108)" opacity="0.86"></rect><rect width="448" height="3" x="-190" y="43.5" rx="1.5" transform="rotate(45, 34, 45)" opacity="0.90"></rect><rect width="510" height="3" x="247" y="509.5" rx="1.5" transform="rotate(45, 502, 511)" opacity="0.57"></rect><rect width="47" height="3" x="299.5" y="702.5" rx="1.5" transform="rotate(45, 323, 704)" opacity="0.18"></rect><rect width="392" height="3" x="182" y="219.5" rx="1.5" transform="rotate(45, 378, 221)" opacity="0.82"></rect><rect width="399" height="3" x="355.5" y="347.5" rx="1.5" transform="rotate(45, 555, 349)" opacity="0.67"></rect><rect width="442" height="3" x="-95" y="267.5" rx="1.5" transform="rotate(45, 126, 269)" opacity="0.95"></rect><rect width="222" height="3" x="481" y="268.5" rx="1.5" transform="rotate(45, 592, 270)" opacity="0.58"></rect><rect width="185" height="3" x="479.5" y="201.5" rx="1.5" transform="rotate(45, 572, 203)" opacity="0.55"></rect><rect width="94" height="3" x="704" y="693.5" rx="1.5" transform="rotate(45, 751, 695)" opacity="0.72"></rect><rect width="203" height="3" x="516.5" y="480.5" rx="1.5" transform="rotate(45, 618, 482)" opacity="0.66"></rect><rect width="479" height="3" x="-138.5" y="536.5" rx="1.5" transform="rotate(45, 101, 538)" opacity="0.24"></rect><rect width="247" height="3" x="154.5" y="39.5" rx="1.5" transform="rotate(45, 278, 41)" opacity="0.62"></rect><rect width="276" height="3" x="220" y="122.5" rx="1.5" transform="rotate(45, 358, 124)" opacity="0.36"></rect><rect width="444" height="3" x="-105" y="767.5" rx="1.5" transform="rotate(45, 117, 769)" opacity="0.08"></rect><rect width="174" height="3" x="-31" y="227.5" rx="1.5" transform="rotate(45, 56, 229)" opacity="0.88"></rect><rect width="377" height="3" x="571.5" y="764.5" rx="1.5" transform="rotate(45, 760, 766)" opacity="0.60"></rect><rect width="214" height="3" x="317" y="465.5" rx="1.5" transform="rotate(45, 424, 467)" opacity="0.20"></rect><rect width="623" height="3" x="17.5" y="475.5" rx="1.5" transform="rotate(45, 329, 477)" opacity="0.59"></rect><rect width="545" height="3" x="415.5" y="34.5" rx="1.5" transform="rotate(45, 688, 36)" opacity="0.18"></rect><rect width="407" height="3" x="217.5" y="561.5" rx="1.5" transform="rotate(45, 421, 563)" opacity="0.82"></rect><rect width="576" height="3" x="-30" y="129.5" rx="1.5" transform="rotate(45, 258, 131)" opacity="0.98"></rect><rect width="555" height="3" x="96.5" y="337.5" rx="1.5" transform="rotate(45, 374, 339)" opacity="0.89"></rect><rect width="558" height="3" x="454" y="501.5" rx="1.5" transform="rotate(45, 733, 503)" opacity="0.67"></rect><rect width="396" height="3" x="420" y="688.5" rx="1.5" transform="rotate(45, 618, 690)" opacity="0.64"></rect><rect width="210" height="3" x="579" y="606.5" rx="1.5" transform="rotate(45, 684, 608)" opacity="0.73"></rect><rect width="271" height="3" x="101.5" y="235.5" rx="1.5" transform="rotate(45, 237, 237)" opacity="0.19"></rect><rect width="387" height="3" x="-128.5" y="615.5" rx="1.5" transform="rotate(45, 65, 617)" opacity="0.72"></rect><rect width="304" height="3" x="443" y="632.5" rx="1.5" transform="rotate(45, 595, 634)" opacity="0.54"></rect><rect width="253" height="3" x="-70.5" y="347.5" rx="1.5" transform="rotate(45, 56, 349)" opacity="0.23"></rect><rect width="92" height="3" x="500" y="430.5" rx="1.5" transform="rotate(45, 546, 432)" opacity="0.39"></rect><rect width="175" height="3" x="238.5" y="775.5" rx="1.5" transform="rotate(45, 326, 777)" opacity="0.22"></rect><rect width="367" height="3" x="238.5" y="30.5" rx="1.5" transform="rotate(45, 422, 32)" opacity="0.37"></rect><rect width="428" height="3" x="529" y="386.5" rx="1.5" transform="rotate(45, 743, 388)" opacity="0.81"></rect><rect width="79" height="3" x="726.5" y="608.5" rx="1.5" transform="rotate(45, 766, 610)" opacity="0.28"></rect></g></svg>